# xmcd
#
# Track frame offsets:
#	150
#	14207
#	31661
#	47055
#	64873
#	85898
#	100541
#	118934
#	135261
#	145913
#	159944
#	174751
#	193215
#	207715
#	223285
#
# Disc length: 3191 seconds
#
# Revision: 1
# Processed by: cddbd v1.5.1PL2 Copyright (c) Steve Scherf et al.
# Submitted via: audiograbber 1.83.01
#
DISCID=d70c750f
DTITLE=Kjell Samuelson - Minns du sången...
DYEAR=1900
DGENRE=Gospel
TTITLE0=Gud gjort en väg
TTITLE1=Om du tror på Gud
TTITLE2=Barnaår och ungdomsvår
TTITLE3=Sången från tid förgåmgen
TTITLE4=Börja om än en gåmg i mitt liv
TTITLE5=Sjung en sång om nåden
TTITLE6=Där roser aldrig dör
TTITLE7=Genom allt
TTITLE8=Fader vår
TTITLE9=Pärleporten
TTITLE10=O store Gud
TTITLE11=Du må fråga hur jeg vet
TTITLE12=Säg, känner du det underbara namnet
TTITLE13=Evighetens morgon
TTITLE14=Ge ditt liv
EXTD=
EXTT0=
EXTT1=
EXTT2=
EXTT3=
EXTT4=
EXTT5=
EXTT6=
EXTT7=
EXTT8=
EXTT9=
EXTT10=
EXTT11=
EXTT12=
EXTT13=
EXTT14=
PLAYORDER=
